<svg xmlns="http://www.w3.org/2000/svg" viewBox="0 0 680 460" role="img" aria-label="20ft by 8ft shipping container with double doors on the front">
<defs>
<linearGradient id="gTop" x1="0" y1="0" x2="0.4" y2="1"><stop offset="0" stop-color="#5c86a5"/><stop offset="1" stop-color="#40708f"/></linearGradient>
<linearGradient id="gSide" x1="0" y1="0" x2="0" y2="1"><stop offset="0" stop-color="#33648a"/><stop offset="1" stop-color="#20496b"/></linearGradient>
<linearGradient id="gDoor" x1="0" y1="0" x2="1" y2="0"><stop offset="0" stop-color="#1c4363"/><stop offset="1" stop-color="#122f44"/></linearGradient>
<radialGradient id="gShadow" cx="0.5" cy="0.5" r="0.5"><stop offset="0" stop-color="#1f2a33" stop-opacity="0.26"/><stop offset="1" stop-color="#1f2a33" stop-opacity="0"/></radialGradient>
<marker id="ah" markerWidth="10" markerHeight="10" refX="5" refY="5" orient="auto-start-reverse"><path d="M1.5,1.5 L8.5,5 L1.5,8.5 z" fill="#5b6b52"/></marker>
</defs>
<ellipse cx="245" cy="322" rx="295" ry="30" fill="url(#gShadow)"/>
<polygon points="410.0,150.0 560.0,150.0 230.0,64.0 80.0,64.0" fill="url(#gTop)"/>
<polygon points="410.0,150.0 80.0,64.0 80.0,223.0 410.0,309.0" fill="url(#gSide)"/>
<line x1="384.6" y1="143.4" x2="384.6" y2="302.4" stroke="#0f3149" stroke-opacity="0.32" stroke-width="3.5"/>
<line x1="359.2" y1="136.8" x2="359.2" y2="295.8" stroke="#0f3149" stroke-opacity="0.32" stroke-width="3.5"/>
<line x1="333.8" y1="130.2" x2="333.8" y2="289.2" stroke="#0f3149" stroke-opacity="0.32" stroke-width="3.5"/>
<line x1="308.5" y1="123.5" x2="308.5" y2="282.5" stroke="#0f3149" stroke-opacity="0.32" stroke-width="3.5"/>
<line x1="283.1" y1="116.9" x2="283.1" y2="275.9" stroke="#0f3149" stroke-opacity="0.32" stroke-width="3.5"/>
<line x1="257.7" y1="110.3" x2="257.7" y2="269.3" stroke="#0f3149" stroke-opacity="0.32" stroke-width="3.5"/>
<line x1="232.3" y1="103.7" x2="232.3" y2="262.7" stroke="#0f3149" stroke-opacity="0.32" stroke-width="3.5"/>
<line x1="206.9" y1="97.1" x2="206.9" y2="256.1" stroke="#0f3149" stroke-opacity="0.32" stroke-width="3.5"/>
<line x1="181.5" y1="90.5" x2="181.5" y2="249.5" stroke="#0f3149" stroke-opacity="0.32" stroke-width="3.5"/>
<line x1="156.2" y1="83.8" x2="156.2" y2="242.8" stroke="#0f3149" stroke-opacity="0.32" stroke-width="3.5"/>
<line x1="130.8" y1="77.2" x2="130.8" y2="236.2" stroke="#0f3149" stroke-opacity="0.32" stroke-width="3.5"/>
<line x1="105.4" y1="70.6" x2="105.4" y2="229.6" stroke="#0f3149" stroke-opacity="0.32" stroke-width="3.5"/>
<polyline points="80.0,64.0 410.0,150.0 560.0,150.0" fill="none" stroke="#7ba0bc" stroke-width="1.6" stroke-opacity="0.75"/>
<polygon points="410.0,150.0 560.0,150.0 560.0,309.0 410.0,309.0" fill="url(#gDoor)"/>
<line x1="485.0" y1="156" x2="485.0" y2="303" stroke="#0b2334" stroke-width="2.5"/>
<rect x="433.9" y="160" width="3.2" height="139" rx="1.6" fill="#c6d2db"/>
<rect x="433.9" y="160" width="1.3" height="139" fill="#e8eef3"/>
<rect x="460.9" y="160" width="3.2" height="139" rx="1.6" fill="#c6d2db"/>
<rect x="460.9" y="160" width="1.3" height="139" fill="#e8eef3"/>
<rect x="505.9" y="160" width="3.2" height="139" rx="1.6" fill="#c6d2db"/>
<rect x="505.9" y="160" width="1.3" height="139" fill="#e8eef3"/>
<rect x="532.9" y="160" width="3.2" height="139" rx="1.6" fill="#c6d2db"/>
<rect x="532.9" y="160" width="1.3" height="139" fill="#e8eef3"/>
<rect x="429.5" y="229.5" width="12" height="9" rx="3" fill="#00A34A"/>
<rect x="456.5" y="229.5" width="12" height="9" rx="3" fill="#00A34A"/>
<rect x="501.5" y="229.5" width="12" height="9" rx="3" fill="#00A34A"/>
<rect x="528.5" y="229.5" width="12" height="9" rx="3" fill="#00A34A"/>
<g><rect x="75.0" y="60.2" width="10" height="7.5" rx="1.3" fill="#152c40" stroke="#081521" stroke-width="0.8"/><rect x="75.0" y="60.2" width="10" height="3.0" rx="1.3" fill="#4d7996" opacity="0.5"/><ellipse cx="80.0" cy="64.0" rx="2.2" ry="1.3" fill="#081521"/></g>
<g><rect x="75.0" y="219.2" width="10" height="7.5" rx="1.3" fill="#152c40" stroke="#081521" stroke-width="0.8"/><rect x="75.0" y="219.2" width="10" height="3.0" rx="1.3" fill="#4d7996" opacity="0.5"/><ellipse cx="80.0" cy="223.0" rx="2.2" ry="1.3" fill="#081521"/></g>
<g><rect x="405.0" y="146.2" width="10" height="7.5" rx="1.3" fill="#152c40" stroke="#081521" stroke-width="0.8"/><rect x="405.0" y="146.2" width="10" height="3.0" rx="1.3" fill="#4d7996" opacity="0.5"/><ellipse cx="410.0" cy="150.0" rx="2.2" ry="1.3" fill="#081521"/></g>
<g><rect x="405.0" y="305.2" width="10" height="7.5" rx="1.3" fill="#152c40" stroke="#081521" stroke-width="0.8"/><rect x="405.0" y="305.2" width="10" height="3.0" rx="1.3" fill="#4d7996" opacity="0.5"/><ellipse cx="410.0" cy="309.0" rx="2.2" ry="1.3" fill="#081521"/></g>
<g><rect x="555.0" y="146.2" width="10" height="7.5" rx="1.3" fill="#152c40" stroke="#081521" stroke-width="0.8"/><rect x="555.0" y="146.2" width="10" height="3.0" rx="1.3" fill="#4d7996" opacity="0.5"/><ellipse cx="560.0" cy="150.0" rx="2.2" ry="1.3" fill="#081521"/></g>
<g><rect x="555.0" y="305.2" width="10" height="7.5" rx="1.3" fill="#152c40" stroke="#081521" stroke-width="0.8"/><rect x="555.0" y="305.2" width="10" height="3.0" rx="1.3" fill="#4d7996" opacity="0.5"/><ellipse cx="560.0" cy="309.0" rx="2.2" ry="1.3" fill="#081521"/></g>
<line x1="596" y1="150" x2="596" y2="309" stroke="#5b6b52" stroke-width="1.6" marker-start="url(#ah)" marker-end="url(#ah)"/>
<g><rect x="555.6" y="216.0" width="80.8" height="27" rx="13.5" fill="#ffffff" stroke="#e2ded4" stroke-width="1.2"/><text x="596.0" y="234.9" font-family="Arial,Helvetica,sans-serif" font-size="15" font-weight="700" fill="#22303a" text-anchor="middle">8ft 6in</text></g>
<line x1="410" y1="343" x2="560" y2="343" stroke="#5b6b52" stroke-width="1.6" marker-start="url(#ah)" marker-end="url(#ah)"/>
<g><rect x="432.0" y="329.5" width="106.0" height="27" rx="13.5" fill="#ffffff" stroke="#e2ded4" stroke-width="1.2"/><text x="485.0" y="348.4" font-family="Arial,Helvetica,sans-serif" font-size="15" font-weight="700" fill="#22303a" text-anchor="middle">8ft (2.4m)</text></g>
<line x1="404.0" y1="345.0" x2="74.0" y2="259.0" stroke="#5b6b52" stroke-width="1.6" marker-start="url(#ah)" marker-end="url(#ah)"/>
<g><rect x="181.8" y="288.5" width="114.4" height="27" rx="13.5" fill="#ffffff" stroke="#e2ded4" stroke-width="1.2"/><text x="239.0" y="307.4" font-family="Arial,Helvetica,sans-serif" font-size="15" font-weight="700" fill="#22303a" text-anchor="middle">20ft (6.1m)</text></g>
</svg>